<svg xmlns="http://www.w3.org/2000/svg" version="1.1" xmlns:xlink="http://www.w3.org/1999/xlink" xmlns:svgjs="http://svgjs.dev/svgjs" width="1500" height="935" viewBox="0 0 1500 935"><g transform="matrix(1,0,0,1,-0.9090909090909918,0.3785425101214628)"><svg viewBox="0 0 396 247" data-background-color="#97d5ee" preserveAspectRatio="xMidYMid meet" height="935" width="1500" xmlns="http://www.w3.org/2000/svg" xmlns:xlink="http://www.w3.org/1999/xlink"><g id="tight-bounds" transform="matrix(1,0,0,1,0.2400000000000091,-0.09999999999999432)"><svg viewBox="0 0 395.52 247.2" height="247.2" width="395.52"><g><svg></svg></g><g><svg viewBox="0 0 395.52 247.2" height="247.2" width="395.52"><g transform="matrix(1,0,0,1,75.54432,69.327215263509)"><svg viewBox="0 0 244.43135999999998 108.54556947298198" height="108.54556947298198" width="244.43135999999998"><g><svg viewBox="0 0 244.43135999999998 108.54556947298198" height="108.54556947298198" width="244.43135999999998"><g><svg viewBox="0 0 244.43135999999998 108.54556947298198" height="108.54556947298198" width="244.43135999999998"><g><svg viewBox="0 0 244.43135999999998 108.54556947298198" height="108.54556947298198" width="244.43135999999998"><g id="textblocktransform"><svg viewBox="0 0 244.43135999999998 108.54556947298198" height="108.54556947298198" width="244.43135999999998" id="textblock"><g><svg viewBox="0 0 244.43135999999998 108.54556947298198" height="108.54556947298198" width="244.43135999999998"><g transform="matrix(1,0,0,1,0,0)"><svg width="244.43135999999998" viewBox="1.93 -38.01 109.77999999999999 48.75" height="108.54556947298198" data-palette-color="#db3e25"><path d="M20.85-13.04L20.85-13.04 20.78-8.35Q20.78-3.98 21.58-2.39L21.58-2.39Q22.07-1.44 22.73-0.93L22.73-0.93 23.88 0 16.8 0 16.04-2.83Q13.28 0.49 8.18 0.49L8.18 0.49Q5.27 0.49 3.49-1.46L3.49-1.46Q1.93-3.22 1.93-5.62 1.93-8.01 3.06-9.79 4.2-11.57 6.05-12.74L6.05-12.74Q9.72-15.01 15.26-15.11L15.26-15.11 15.26-15.38Q15.26-21.31 13.43-22.34L13.43-22.34Q12.77-22.71 11.73-22.71 10.69-22.71 9.67-22.02 8.64-21.34 7.81-20.26L7.81-20.26Q6.15-18.09 5.44-15.14L5.44-15.14Q3.27-16.43 3.27-20.09L3.27-20.09Q3.27-21.58 3.66-23.44L3.66-23.44Q4.59-23.44 5.42-23.71L5.42-23.71 7.3-24.29Q10.06-25.15 12.7-25.15 15.33-25.15 16.91-24.37 18.48-23.58 19.36-22.05L19.36-22.05Q20.85-19.43 20.85-13.04ZM7.2-5.13Q7.2-3.61 7.9-2.78 8.59-1.95 9.64-1.95 10.69-1.95 11.67-2.5 12.65-3.05 13.43-4L13.43-4Q15.26-6.18 15.26-9.11L15.26-9.11 15.26-12.72Q11.84-12.4 9.62-10.45L9.62-10.45Q7.2-8.35 7.2-5.13L7.2-5.13ZM32.86-23.1L32.86-23.1Q35.59-25.15 39.69-25.15L39.69-25.15Q45.51-25.15 47.29-20.34L47.29-20.34Q47.87-18.75 47.87-16.35 47.87-13.94 47.32-11.66 46.77-9.38 45.8-7.54 44.82-5.71 43.49-4.32 42.16-2.93 40.6-2L40.6-2Q37.47-0.12 33.96-0.02L33.96-0.02Q34.01 1.29 34.1 2.56L34.1 2.56 34.35 5.15Q34.57 7.79 35.86 9.62L35.86 9.62 36.69 10.74 27.78 10.74Q28.46 8.4 28.57 6.05 28.68 3.71 28.75 2.04 28.81 0.37 28.83-1.42L28.83-1.42Q28.93-5.57 28.93-8.69L28.93-8.69Q28.93-18.75 28.29-21L28.29-21Q27.9-22.39 27.29-23.22L27.29-23.22 26.27-24.66 32.83-24.66Q32.69-24.17 32.86-23.1ZM41.77-15.7L41.77-15.7Q41.77-22.71 38.23-22.71L38.23-22.71Q36.47-22.71 35.3-21.14L35.3-21.14Q34.03-19.46 34.03-16.53L34.03-16.53 33.86-4.96 33.86-3.61Q33.86-2.95 33.88-2.27L33.88-2.27Q37.42-2.81 39.62-6.52L39.62-6.52Q41.77-10.18 41.77-15.7ZM58.59-23.1L58.59-23.1Q61.32-25.15 65.42-25.15L65.42-25.15Q71.24-25.15 73.02-20.34L73.02-20.34Q73.6-18.75 73.6-16.35 73.6-13.94 73.05-11.66 72.5-9.38 71.53-7.54 70.55-5.71 69.22-4.32 67.89-2.93 66.33-2L66.33-2Q63.2-0.12 59.69-0.02L59.69-0.02Q59.74 1.29 59.83 2.56L59.83 2.56 60.08 5.15Q60.3 7.79 61.59 9.62L61.59 9.62 62.42 10.74 53.51 10.74Q54.19 8.4 54.3 6.05 54.41 3.71 54.47 2.04 54.54 0.37 54.56-1.42L54.56-1.42Q54.66-5.57 54.66-8.69L54.66-8.69Q54.66-18.75 54.02-21L54.02-21Q53.63-22.39 53.02-23.22L53.02-23.22 52-24.66 58.56-24.66Q58.42-24.17 58.59-23.1ZM67.5-15.7L67.5-15.7Q67.5-22.71 63.96-22.71L63.96-22.71Q62.2-22.71 61.03-21.14L61.03-21.14Q59.76-19.46 59.76-16.53L59.76-16.53 59.59-4.96 59.59-3.61Q59.59-2.95 59.61-2.27L59.61-2.27Q63.15-2.81 65.35-6.52L65.35-6.52Q67.5-10.18 67.5-15.7ZM86.7-31.23Q86.2-30.42 85.49-29.87 84.78-29.32 83.88-29.32 82.98-29.32 82.27-29.87 81.56-30.42 81.07-31.23L81.07-31.23Q80.07-32.89 80.07-34.74L80.07-34.74Q80.07-36.99 82.12-37.74L82.12-37.74Q82.85-38.01 83.9-38.01L83.9-38.01Q86.81-38.01 87.52-35.96L87.52-35.96Q87.74-35.38 87.74-34.66 87.74-33.94 87.47-32.98 87.2-32.03 86.7-31.23ZM87.27 0L80.07 0Q81.19-3.86 81.19-13.26L81.19-13.26Q81.19-19.87 80.02-22.36L80.02-22.36Q79.73-23 79.36-23.54L79.36-23.54 78.56-24.66 87.22-24.66Q86.15-20.63 86.15-12.24 86.15-3.86 87.27 0L87.27 0ZM110.59-8.3L110.59-8.3Q111.46-7.71 111.46-6.26 111.46-4.81 111.07-3.71 110.68-2.61 109.71-1.66L109.71-1.66Q107.51 0.49 103.02 0.49L103.02 0.49Q97.79 0.49 95.06-3.37L95.06-3.37Q92.64-6.81 92.64-12.67L92.64-12.67Q92.64-18.58 95.91-21.95L95.91-21.95Q99.01-25.15 104.31-25.15L104.31-25.15Q108-25.15 110.07-23L110.07-23Q111.71-21.29 111.71-19.06 111.71-16.82 110.84-15.03 109.98-13.23 108.29-11.94L108.29-11.94Q104.82-9.25 98.6-9.11L98.6-9.11Q99.11-4.2 101.67-2.54L101.67-2.54Q102.6-1.95 104.14-1.95 105.68-1.95 107.41-3.56 109.15-5.18 110.59-8.3ZM98.45-12.18L98.45-11.43Q106.17-11.94 106.17-18.9L106.17-18.9Q106.17-21.51 104.6-22.41L104.6-22.41Q104.07-22.71 103.19-22.71 102.31-22.71 101.42-22.17 100.53-21.63 99.87-20.41L99.87-20.41Q98.45-17.75 98.45-12.18L98.45-12.18Z" opacity="1" transform="matrix(1,0,0,1,0,0)" fill="#db3e25" class="wordmark-text-0" data-fill-palette-color="primary" id="text-0"></path></svg></g></svg></g></svg></g></svg></g></svg></g></svg></g></svg></g><g><path d="M245.816 0c68.262 0 123.6 55.338 123.6 123.6 0 68.262-55.338 123.6-123.6 123.6-43.532 0-81.808-22.505-103.828-56.515l5.883 0c21.393 31.173 57.281 51.62 97.945 51.621 65.559 0 118.706-53.146 118.705-118.706 0-65.559-53.146-118.706-118.705-118.706-40.664 0-76.553 20.447-97.945 51.621l-5.883 0c22.02-34.01 60.296-56.515 103.828-56.515z" fill="#db3e25" stroke="transparent" data-fill-palette-color="tertiary"></path></g></svg></g><defs></defs></svg><rect width="395.52" height="247.2" fill="none" stroke="none" visibility="hidden"></rect></g></svg></g></svg>